<svg width="14" height="13" viewBox="0 0 14 13" fill="none" xmlns="http://www.w3.org/2000/svg">
<path d="M6.25004 9.37447C6.25004 9.57337 6.32906 9.76413 6.4697 9.90477C6.61034 10.0454 6.8011 10.1244 7 10.1244C7.1989 10.1244 7.38966 10.0454 7.5303 9.90477C7.67094 9.76413 7.74996 9.57337 7.74996 9.37447C7.74996 9.17557 7.67094 8.98482 7.5303 8.84417C7.38966 8.70353 7.1989 8.62451 7 8.62451C6.8011 8.62451 6.61034 8.70353 6.4697 8.84417C6.32906 8.98482 6.25004 9.17557 6.25004 9.37447V9.37447ZM6.50003 4.62474V7.49958C6.50003 7.56832 6.55627 7.62457 6.62502 7.62457H7.37498C7.44372 7.62457 7.49997 7.56832 7.49997 7.49958V4.62474C7.49997 4.55599 7.44372 4.49975 7.37498 4.49975H6.62502C6.55627 4.49975 6.50003 4.55599 6.50003 4.62474ZM13.9324 11.4994L7.43279 0.249986C7.33592 0.0828078 7.16874 0 7 0C6.83126 0 6.66252 0.0828078 6.56721 0.249986L0.0675796 11.4994C-0.124597 11.8337 0.116014 12.2493 0.500368 12.2493H13.4996C13.884 12.2493 14.1246 11.8337 13.9324 11.4994ZM1.69093 11.0634L7 1.87333L12.3091 11.0634H1.69093V11.0634Z" fill="#514016"/>
</svg>
