<svg width="16" height="20" viewBox="0 0 16 20" fill="none" xmlns="http://www.w3.org/2000/svg">
<rect width="16" height="20" fill="#EFECEC"/>
<rect width="1920" height="1080" transform="translate(-1152 -432)" fill="#FAFAF9"/>
<path d="M-438 -9C-438 -13.4183 -434.418 -17 -430 -17H27C31.4183 -17 35 -13.4183 35 -9V29C35 33.4183 31.4183 37 27 37H-430C-434.418 37 -438 33.4183 -438 29V-9Z" fill="white"/>
<path d="M12 5C12 7.20914 10.2091 9 8 9C5.79086 9 4 7.20914 4 5C4 2.79086 5.79086 1 8 1C10.2091 1 12 2.79086 12 5Z" stroke="#D4D4D4" stroke-width="2" stroke-linecap="round" stroke-linejoin="round"/>
<path d="M8 12C4.13401 12 1 15.134 1 19H15C15 15.134 11.866 12 8 12Z" stroke="#D4D4D4" stroke-width="2" stroke-linecap="round" stroke-linejoin="round"/>
<path d="M-430 -16H27V-18H-430V-16ZM34 -9V29H36V-9H34ZM27 36H-430V38H27V36ZM-437 29V-9H-439V29H-437ZM-430 36C-433.866 36 -437 32.866 -437 29H-439C-439 33.9706 -434.971 38 -430 38V36ZM34 29C34 32.866 30.866 36 27 36V38C31.9706 38 36 33.9706 36 29H34ZM27 -16C30.866 -16 34 -12.866 34 -9H36C36 -13.9706 31.9706 -18 27 -18V-16ZM-430 -18C-434.971 -18 -439 -13.9706 -439 -9H-437C-437 -12.866 -433.866 -16 -430 -16V-18Z" fill="#E7E5E4"/>
</svg>
