<svg width="20" height="18" viewBox="0 0 20 18" fill="none" xmlns="http://www.w3.org/2000/svg">
<path d="M7.5 15.625C7.5 16.6605 6.66053 17.5 5.625 17.5C4.58947 17.5 3.75 16.6605 3.75 15.625C3.75 14.5895 4.58947 13.75 5.625 13.75C6.66053 13.75 7.5 14.5895 7.5 15.625Z" fill="#CFD4E7"/>
<path d="M16.25 15.625C16.25 16.6605 15.4105 17.5 14.375 17.5C13.3395 17.5 12.5 16.6605 12.5 15.625C12.5 14.5895 13.3395 13.75 14.375 13.75C15.4105 13.75 16.25 14.5895 16.25 15.625Z" fill="#CFD4E7"/>
<path d="M1.25 0C0.559644 0 0 0.559644 0 1.25V13.75C0 14.4404 0.559644 15 1.25 15H2.56251C2.85206 13.5736 4.11315 12.5 5.625 12.5C7.13685 12.5 8.39794 13.5736 8.68749 15H10C10.6904 15 11.25 14.4404 11.25 13.75V1.25C11.25 0.559644 10.6904 0 10 0H1.25Z" fill="#CFD4E7"/>
<path d="M15 3.75C14.3096 3.75 13.75 4.30964 13.75 5V12.5625C13.9519 12.5215 14.161 12.5 14.375 12.5C15.8868 12.5 17.1479 13.5736 17.4375 15H18.75C19.4404 15 20 14.4404 20 13.75V7.5C20 7.16848 19.8683 6.85054 19.6339 6.61612L17.1339 4.11612C16.8995 3.8817 16.5815 3.75 16.25 3.75H15Z" fill="#CFD4E7"/>
</svg>
