<svg width="20" height="20" viewBox="0 0 20 20" fill="none" xmlns="http://www.w3.org/2000/svg">
<path d="M2.85714 0C1.27919 0 0 1.27919 0 2.85714V5.71429C0 7.29224 1.27919 8.57143 2.85714 8.57143H5.71429C7.29224 8.57143 8.57143 7.29224 8.57143 5.71429V2.85714C8.57143 1.27919 7.29224 0 5.71429 0H2.85714Z" fill="#CFD4E7"/>
<path d="M2.85714 11.4286C1.27919 11.4286 0 12.7078 0 14.2857V17.1429C0 18.7208 1.27919 20 2.85714 20H5.71429C7.29224 20 8.57143 18.7208 8.57143 17.1429V14.2857C8.57143 12.7078 7.29224 11.4286 5.71429 11.4286H2.85714Z" fill="#CFD4E7"/>
<path d="M11.4286 2.85714C11.4286 1.27919 12.7078 0 14.2857 0H17.1429C18.7208 0 20 1.27919 20 2.85714V5.71429C20 7.29224 18.7208 8.57143 17.1429 8.57143H14.2857C12.7078 8.57143 11.4286 7.29224 11.4286 5.71429V2.85714Z" fill="#CFD4E7"/>
<path d="M11.4286 14.2857C11.4286 12.7078 12.7078 11.4286 14.2857 11.4286H17.1429C18.7208 11.4286 20 12.7078 20 14.2857V17.1429C20 18.7208 18.7208 20 17.1429 20H14.2857C12.7078 20 11.4286 18.7208 11.4286 17.1429V14.2857Z" fill="#CFD4E7"/>
</svg>
