<svg width="20" height="20" viewBox="0 0 20 20" fill="none" xmlns="http://www.w3.org/2000/svg">
<path fill-rule="evenodd" clip-rule="evenodd" d="M19.6339 9.11612C20.122 9.60427 20.122 10.3957 19.6339 10.8839L10.8839 19.6339C10.3957 20.122 9.60427 20.122 9.11612 19.6339L0.366117 10.8839C0.122 10.6398 -3.89163e-05 10.3198 9.30882e-09 9.99985V3.75C9.30882e-09 1.67893 1.67893 0 3.75 0H10.0003C10.3201 8.70485e-05 10.6399 0.122126 10.8839 0.366116L19.6339 9.11612ZM3.75 5C4.44036 5 5 4.44036 5 3.75C5 3.05964 4.44036 2.5 3.75 2.5C3.05964 2.5 2.5 3.05964 2.5 3.75C2.5 4.44036 3.05964 5 3.75 5Z" fill="#CFD4E7"/>
</svg>
