<svg width="16" height="10" viewBox="0 0 16 10" fill="none" xmlns="http://www.w3.org/2000/svg">
<path fill-rule="evenodd" clip-rule="evenodd" d="M10 8C9.44771 8 9 8.44772 9 9C9 9.55229 9.44771 10 10 10H15C15.5523 10 16 9.55229 16 9V4C16 3.44772 15.5523 3 15 3C14.4477 3 14 3.44772 14 4V6.58579L9.70711 2.29289C9.31658 1.90237 8.68342 1.90237 8.29289 2.29289L6 4.58579L1.70711 0.292894C1.31658 -0.0976312 0.683417 -0.0976312 0.292893 0.292894C-0.0976311 0.683418 -0.0976311 1.31658 0.292893 1.70711L5.29289 6.70711C5.68342 7.09763 6.31658 7.09763 6.70711 6.70711L9 4.41421L12.5858 8H10Z" fill="#FB7185"/>
</svg>
