<svg width="242" height="189" viewBox="0 0 242 189" fill="none" xmlns="http://www.w3.org/2000/svg">
<path d="M84.7179 108.756C78.1573 88.0532 84.7177 82.0258 110.697 58.7021L118.57 75.2121L84.7179 108.756Z" fill="#A78BFA"/>
<path d="M128.279 0C77.3701 49.0058 79.207 44.5507 83.9306 68.3985C132.216 19.9168 134.84 19.9168 128.279 0Z" fill="#A78BFA"/>
<path d="M154.383 56.6057C103.474 105.612 105.311 101.156 110.034 125.004C158.32 76.5225 160.944 76.5225 154.383 56.6057Z" fill="#A78BFA"/>
<path d="M128.279 65.5157C161.607 34.0682 157.146 34.0682 154.259 15.4617L120.407 49.0058L128.279 65.5157Z" fill="#A78BFA"/>
<path d="M18.6759 151.431L36.7471 175.582H26.0656L9.27075 153.577V175.582H0V128.621H9.27075V149.351L25.3938 128.621H36.0753L18.6759 151.431Z" fill="#3F3F46"/>
<path d="M64.172 171.423C60.7683 174.822 56.5584 176.522 51.5423 176.522C46.5263 176.522 42.3164 174.822 38.9126 171.423C35.5088 168.024 33.807 163.82 33.807 158.81C33.807 153.846 35.5088 149.664 38.9126 146.265C42.3611 142.821 46.571 141.099 51.5423 141.099C56.5136 141.099 60.7235 142.821 64.172 146.265C67.6206 149.709 69.3448 153.89 69.3448 158.81C69.3448 163.775 67.6206 167.979 64.172 171.423ZM45.0259 165.452C46.7726 167.196 48.9447 168.068 51.5423 168.068C54.1399 168.068 56.312 167.196 58.0587 165.452C59.8054 163.708 60.6787 161.494 60.6787 158.81C60.6787 156.127 59.8054 153.913 58.0587 152.169C56.312 150.424 54.1399 149.552 51.5423 149.552C48.9447 149.552 46.7726 150.424 45.0259 152.169C43.324 153.958 42.4731 156.171 42.4731 158.81C42.4731 161.449 43.324 163.663 45.0259 165.452Z" fill="#3F3F46"/>
<path d="M92.3034 141.099C96.8268 141.099 100.678 142.821 103.858 146.265C107.083 149.709 108.695 153.89 108.695 158.81C108.695 163.82 107.083 168.024 103.858 171.423C100.723 174.822 96.8716 176.522 92.3034 176.522C87.6008 176.522 83.9731 174.889 81.4203 171.624V189H72.7542V142.038H81.4203V145.996C83.9731 142.731 87.6008 141.099 92.3034 141.099ZM84.0403 165.653C85.787 167.398 88.0039 168.27 90.6911 168.27C93.3783 168.27 95.5952 167.398 97.3418 165.653C99.1333 163.864 100.029 161.583 100.029 158.81C100.029 156.037 99.1333 153.779 97.3418 152.034C95.5952 150.245 93.3783 149.351 90.6911 149.351C88.0039 149.351 85.787 150.245 84.0403 152.034C82.2937 153.779 81.4203 156.037 81.4203 158.81C81.4203 161.583 82.2937 163.864 84.0403 165.653Z" fill="#3F3F46"/>
<path d="M110.507 142.038H140.268V150.357H129.788V175.582H121.122V150.357H110.507V142.038Z" fill="#3F3F46"/>
<path d="M176.201 162.366H150.875C151.995 166.57 155.152 168.672 160.347 168.672C163.661 168.672 166.169 167.554 167.871 165.318L174.858 169.343C171.544 174.129 166.662 176.522 160.213 176.522C154.659 176.522 150.203 174.844 146.844 171.49C143.485 168.136 141.806 163.909 141.806 158.81C141.806 153.801 143.463 149.597 146.777 146.198C150.046 142.799 154.301 141.099 159.541 141.099C164.512 141.099 168.565 142.799 171.7 146.198C174.925 149.597 176.537 153.801 176.537 158.81C176.537 159.75 176.425 160.935 176.201 162.366ZM150.741 155.657H167.871C167.379 153.466 166.371 151.788 164.848 150.626C163.37 149.463 161.601 148.881 159.541 148.881C157.212 148.881 155.286 149.485 153.764 150.693C152.241 151.855 151.233 153.51 150.741 155.657Z" fill="#3F3F46"/>
<path d="M196.964 158.609L210.87 175.582H200.793L188.566 160.353V175.582H179.9V142.038H188.566V156.798L200.121 142.038H210.467L196.964 158.609Z" fill="#3F3F46"/>
<path d="M226.817 176.522C221.757 176.522 217.524 174.822 214.121 171.423C210.762 168.024 209.082 163.82 209.082 158.81C209.082 153.801 210.762 149.597 214.121 146.198C217.524 142.799 221.757 141.099 226.817 141.099C230.087 141.099 233.065 141.882 235.752 143.447C238.439 145.012 240.477 147.115 241.866 149.753L234.409 154.114C233.737 152.728 232.707 151.632 231.318 150.827C229.975 150.022 228.452 149.619 226.75 149.619C224.153 149.619 222.003 150.491 220.301 152.236C218.599 153.935 217.748 156.127 217.748 158.81C217.748 161.404 218.599 163.596 220.301 165.385C222.003 167.085 224.153 167.934 226.75 167.934C228.497 167.934 230.042 167.554 231.386 166.794C232.774 165.989 233.804 164.893 234.476 163.506L242 167.8C240.522 170.484 238.417 172.608 235.685 174.173C232.998 175.739 230.042 176.522 226.817 176.522Z" fill="#3F3F46"/>
</svg>
